<svg width="517" height="154" viewBox="0 0 517 154" fill="none" xmlns="http://www.w3.org/2000/svg">
<path d="M20.4311 33.7324C19.9375 33.6362 19.1248 33.3389 18.7792 33.9433C18.47 34.4839 18.1184 34.8581 18.1184 35.5068C18.1184 36.4696 17.6766 38.0519 18.3295 38.8905C18.55 39.1739 19.1429 39.7922 19.5226 39.8396C19.8788 39.8841 20.1671 41.1982 20.1833 41.4902C20.2135 42.0328 19.853 42.4163 19.853 42.9574V44.874C19.853 45.9221 19.6454 47.6131 20.555 48.3403C20.7817 48.5214 20.9307 48.7302 21.2204 48.8354C21.5266 48.9467 21.7656 49.0347 21.9638 49.2893C22.1921 49.5826 22.2231 49.9251 22.4548 50.2339C22.6322 50.4702 22.8005 50.7101 22.9091 50.9812C23.3315 52.0365 24.2175 53.8101 23.368 54.9014C22.7038 55.7546 22.4599 57.4713 23.524 58.0788C24.6014 58.694 25.4086 59.4609 25.4696 60.8023C25.5029 61.5344 25.4785 62.3785 25.6991 63.0948C25.7723 63.3327 25.7868 63.7972 25.8 64.021C25.816 64.2918 25.8826 64.4846 25.8826 64.7638C25.8826 65.1934 25.9423 66.1439 26.2543 66.4556C26.579 66.7801 27.0962 66.8108 27.4061 67.1205C27.6625 67.3767 27.6481 67.6481 27.7411 67.9824L27.7453 67.9975C27.824 68.2806 27.9447 68.7145 27.8604 69.0095C27.7805 69.2887 27.4744 69.5461 27.3694 69.8348C27.279 70.0831 27.1568 70.5931 26.9977 70.7839C26.7989 71.0222 26.9296 71.568 26.7499 71.7834C26.5774 71.9903 26.607 73.5725 26.7269 73.8421C26.975 74.3999 27.7492 74.3373 28.2596 74.3373C29.0598 74.3373 29.543 73.3973 30.1593 72.9709C30.7193 72.5836 31.2431 72.6041 31.8939 72.6041C32.3239 72.6041 32.6404 73.2125 32.9218 73.4936C33.2722 73.8438 33.7461 74.6674 34.3076 74.6674C35.3873 74.6674 36.0728 73.9699 36.9048 73.3286C37.2862 73.0346 37.5763 72.6265 37.9236 72.2924C38.2887 71.9411 38.7106 71.6574 39.0799 71.302C39.2867 71.1031 39.5959 71.0689 39.8371 70.9123C40.1447 70.7125 40.4618 70.5093 40.787 70.3391C41.1943 70.1259 41.657 69.8501 42.0305 69.5918C42.7435 69.0986 43.5051 69.0553 44.3433 69.0553C44.8243 69.0553 45.0726 69.1274 45.5822 68.9315C45.9138 68.8041 46.2097 68.6503 46.4908 68.4318C47.136 67.9304 47.4939 67.1469 47.6105 66.3318C47.6919 65.7621 47.941 65.1363 48.1198 64.5804C48.3023 64.0132 48.3725 63.3956 48.597 62.8472L48.6284 62.7705C49.168 61.4524 49.7165 60.1125 50.4968 58.9225C51.0578 58.067 51.5384 57.0812 52.3323 56.4466C52.4702 56.3363 52.9592 56.1193 53.1399 56.0981C53.5492 56.05 53.5167 55.4795 53.6539 55.1903C53.7911 54.9009 53.8216 54.5596 53.8787 54.2457C53.9426 53.8948 54.0485 53.5275 54.0485 53.1683C54.0485 52.334 54.2466 51.7243 53.8007 50.9445L53.7988 50.9412C52.9692 49.4906 51.8609 47.5527 53.1858 45.9881C53.4636 45.6602 53.657 45.5687 53.5483 45.0803C53.4924 44.8286 53.2081 44.3123 53.0527 44.1312C52.5604 43.5573 51.8142 43.1727 51.488 42.4393C50.9527 41.2359 49.2578 40.4165 49.2578 38.9731C49.2578 38.326 49.3404 37.6627 49.3404 37.0336C49.3404 36.6536 49.4123 36.2235 49.2395 35.8782C49.0597 35.5189 48.7726 35.167 48.4961 34.8695C48.0783 34.4199 47.7431 33.6896 47.0277 33.6499C46.2748 33.6081 45.8107 34.1917 45.1279 34.2276C44.3932 34.2662 43.48 34.4858 42.7693 34.2276C42.1134 33.9893 41.4118 33.3334 41.1219 32.6962C40.973 32.3687 40.8155 32.0428 40.6676 31.7104C40.5168 31.3712 40.3958 30.6271 40.0527 30.4312C39.8642 30.3235 39.643 30.0582 39.5067 29.8993C39.3742 29.7449 38.8426 29.7709 38.644 29.7709C38.0947 29.7709 37.5239 29.9867 36.9507 30.0185C36.074 30.0672 35.3672 30.0945 34.4912 29.8351C33.76 29.6187 32.9272 29.4408 32.1601 29.4408C31.6883 29.4408 30.9169 29.3833 30.5081 29.5875C30.165 29.759 29.8601 29.9672 29.5353 30.1836C28.8841 30.6174 28.4271 31.0407 27.8833 31.605C27.2124 32.3011 26.639 33.0374 25.6348 33.3014C23.8474 33.7714 21.8472 34.172 20.0181 33.6499M58.699 92.2088C58.3266 91.4647 58.2149 90.5484 57.8717 89.7768C57.337 88.5746 56.1409 88.7723 55.3423 89.5702C54.7444 90.1677 54.2984 90.3714 53.8311 89.5543C53.4187 88.8333 53.2357 88.0944 52.8607 87.3449C52.4124 86.449 52.1599 85.4107 51.6516 84.5473C51.2734 83.9048 50.9509 83.1257 50.3233 82.624C49.8456 82.2421 49.0335 82.624 48.462 82.624C47.8188 82.624 47.5514 82.6114 47.0303 82.1948C46.4388 81.722 46.2657 80.8979 46.9269 80.3033C47.6968 79.6109 48.7657 79.0299 49.6472 78.4754C50.1508 78.1586 50.555 77.7674 50.9676 77.3309C51.3068 76.972 51.4195 76.4502 51.755 76.1149C52.0237 75.8465 52.0735 75.0487 52.3357 74.899C52.7999 74.6339 53.1478 74.5783 53.6163 74.3983C54.5697 74.0319 55.6412 73.9838 56.5514 73.5797C58.4538 72.7348 59.6487 71.0849 60.4807 69.1847C60.9682 68.0712 61.3664 66.8928 61.7772 65.7434C61.9324 65.3092 61.986 64.7812 62.2067 64.3843C62.3925 64.0501 62.1183 63.5507 62.3897 63.2796C62.9775 62.6923 63.8678 62.3634 64.3941 61.706C64.8774 61.1024 64.4259 60.05 64.4259 59.3774C64.4259 58.3426 64.2152 57.0673 64.5691 56.095C64.8834 55.2315 65.4869 54.6752 66.1122 53.981C66.7422 53.2816 67.1604 52.3614 67.8303 51.6921C68.5721 50.9508 68.4348 50.2509 68.4348 49.2204C68.4348 48.3782 68.36 47.564 68.1405 46.7964C67.9296 46.0588 67.4326 45.4254 67.4326 44.5711C67.4326 43.9472 67.3105 42.7207 67.6871 42.2504C67.8662 42.0267 67.8393 41.5595 68.0371 41.3125C68.2465 41.051 68.4933 40.8256 68.5859 40.5019C68.7967 39.7646 68.7211 38.8766 68.7211 38.062C68.7211 37.4405 68.4442 36.0519 68.0053 35.5585C67.7368 35.2568 67.8647 34.9094 67.5439 34.5889C67.2829 34.3281 67.0655 34.0285 66.7167 33.8736C66.3745 33.7217 65.6022 33.8245 65.5713 33.2696C65.5471 32.8342 65.7145 32.452 65.7145 32.0536C65.7145 31.2569 66.2872 30.4161 66.2872 29.6217V27.1182C66.2872 26.0992 66.1457 25.3255 65.6827 24.4001C65.2797 23.5948 64.6537 23.2541 64.1396 22.6119C63.6293 21.9746 62.2815 22.2456 61.634 22.3894C60.7853 22.5778 59.7171 22.3973 58.8421 22.3973C56.9501 22.3973 56.5518 21.0043 56.1219 19.5005L56.1014 19.429C55.8904 18.6901 55.6892 17.9858 54.8969 17.5334C54.1472 17.1054 53.0293 17.5589 52.2562 17.2155C51.4179 16.8433 50.2266 17.2998 49.3927 16.9294C48.5958 16.5755 48.2447 16.3408 47.8178 15.5942C47.5013 15.0409 46.4899 14.3854 45.8849 14.2511C45.4709 14.1592 45.1238 13.9846 44.7395 13.814C44.4727 13.6955 44.0598 13.2731 43.8089 13.2417C43.633 13.2198 43.055 12.8108 42.918 12.7013C42.617 12.4607 42.0164 12.4496 41.6613 12.2721C41.046 11.9647 39.9429 11.5604 39.5137 11.0244C38.5896 9.87018 36.743 9.37922 35.3617 9.37922C33.7771 9.37922 31.9579 9.24999 30.5653 10.023C29.2135 10.7734 28.0405 11.7395 26.8826 12.7808C26.2547 13.3454 25.5713 13.8519 24.9418 14.418C24.538 14.7811 24.0142 15.404 23.5419 15.6737C22.1812 16.4506 20.6495 17.2001 19.183 17.8513C18.3677 18.2134 17.4997 18.1057 16.6059 18.1057C15.8192 18.1057 15.1327 17.5334 14.3867 17.5334C14.0487 17.5334 13.7346 17.1043 13.3845 17.1043C12.9557 17.1043 12.6242 17.2473 12.2391 17.2473C11.5839 17.2473 10.5075 17.8156 10.0199 18.2487C8.75219 19.3747 7.27879 20.4111 6.23379 21.7536C5.75732 22.3657 5.47641 22.9696 4.65092 22.9696C4.04005 22.9696 3.7939 22.0553 3.3996 21.9427C3.05042 21.8855 2.37726 21.9427 2.17504 21.9427C1.44031 22.1874 1 23.5409 1 24.6147V27.1897C1 28.0098 1.76227 28.7468 2.25675 29.2958C2.7794 29.8761 3.416 30.168 3.97483 30.7264C4.48985 31.241 4.66371 31.7941 5.0884 32.3397C5.6435 33.0528 5.29521 33.9687 5.29521 34.7717C5.29521 34.8994 5.02066 35.6349 4.93727 35.7016C4.73824 35.8607 4.86569 36.6676 4.86569 36.9175C4.86569 37.6964 4.43617 38.4353 4.43617 39.2064V44.428C4.43617 45.6829 6.06724 46.9955 6.90193 47.8295C7.56786 48.4949 8.14319 49.2923 8.79501 49.9436C9.40615 50.5542 9.54433 51.2118 9.94835 51.9384C10.284 52.5421 10.3063 53.6943 10.3063 54.3704C10.3063 54.8942 10.2348 56.6735 9.80518 57.0169C9.51182 57.2514 9.18326 58.9036 9.1609 59.3058C9.11146 60.1949 9.08219 60.7213 9.70177 61.3404C10.2763 61.9145 10.3696 62.482 10.1552 63.2319C10.0189 63.7085 9.82366 63.7595 10.0915 64.2413C10.2768 64.5745 10.5024 64.8913 10.6006 65.2347C10.8247 66.0186 11.4517 66.4122 11.4517 67.317C11.4517 67.5938 11.2516 68.1959 11.1335 68.4614C10.9639 68.8428 10.8646 69.2449 10.704 69.6059C9.83129 71.5678 11.4387 72.5335 12.6289 73.7227C13.1984 74.2918 15.4037 77.3477 14.5299 78.0462C13.9677 78.4956 14.0288 80.1745 14.0288 80.8358C14.0288 81.1783 13.903 81.7097 14.2515 81.9087C14.6299 82.1248 14.4261 83.0274 14.8163 83.3393C15.3206 83.7424 15.3795 85.1956 15.6355 85.7712C15.9644 86.5106 16.3196 87.4235 16.3196 88.2032C16.3196 89.0471 16.4628 89.9012 16.4628 90.7782C16.4628 91.5202 16.3196 92.4191 16.3196 93.1532M16.3195 93.2101C16.3195 93.8221 16.4851 94.8126 16.3116 95.4196C16.1841 95.8655 15.7343 96.2939 15.6116 96.7229C15.4082 97.4344 14.2188 98.5975 14.856 99.3933C16.034 100.865 17.8971 102.628 18.3319 104.583C18.4625 105.17 19.0398 105.587 19.0398 106.228C19.0398 106.87 19.1168 107.521 18.8648 108.088C18.3082 109.339 17.4649 110.087 17.4649 111.593C17.4649 111.992 17.2018 112.558 17.1786 112.952C17.1429 113.558 17.143 114.207 17.1786 114.812C17.2361 115.788 17.7519 116.78 18.149 117.673C18.3381 118.098 18.5153 118.48 18.7535 118.897C18.9863 119.304 19.507 119.881 19.6046 120.319C19.8401 121.378 20.9011 121.932 20.9011 123.109C20.9011 123.899 21.1168 125.274 21.617 125.898C22.208 126.637 23.0685 126.749 23.5498 127.615C24.1253 128.65 23.7646 130.642 23.7646 131.835C23.7646 132.991 23.0487 133.735 23.0487 134.911C23.0487 136.044 24.1702 136.689 24.9418 137.383C25.4513 137.841 25.791 137.893 26.0872 138.559C26.3003 139.038 26.4849 139.747 26.4849 140.276C26.4849 140.955 26.1361 143.07 26.5564 143.574C26.7333 143.786 26.5636 144.093 26.7394 144.313C26.9293 144.55 27.0325 144.995 27.1689 145.283C27.435 145.844 27.8704 146.315 28.1711 146.856C28.4416 147.343 28.8857 147.571 29.4199 147.571C29.9664 147.571 30.0642 146.673 30.0642 146.212V140.562C30.0642 139.8 30.5728 139.339 30.8914 138.702C31.0604 138.364 31.5474 138.089 31.8539 137.844C32.3339 137.46 32.5456 136.736 32.7845 136.199C33.0114 135.688 33.3247 135.28 33.3572 134.696C33.3766 134.347 33.7193 133.325 33.4686 133.012C33.0957 132.546 32.8963 131.854 32.4982 131.406C31.8664 130.696 32.0686 129.605 32.0686 128.688C32.0686 128.186 31.8562 127.17 32.2834 126.828C32.669 126.52 33.0385 125.627 33.2777 125.183C33.7187 124.365 33.9051 122.522 33.2458 121.79C32.9407 121.451 32.8741 120.864 32.5618 120.462C32.1957 119.992 32.0853 119.401 31.7107 118.952C31.5859 118.803 31.1206 118.041 31.0744 117.879C31.0065 117.642 30.8366 117.402 30.7085 117.172C30.4209 116.655 30.128 116.175 29.921 115.606C29.5016 114.454 29.2052 113.264 29.2052 112.03C29.2052 110.67 30.2074 109.658 30.2074 108.342C30.2074 107.52 30.3506 106.648 30.3506 105.871C30.3506 105.176 30.482 104.347 30.1358 103.725C29.6843 102.913 28.833 100.918 29.7063 100.22C30.5681 99.531 30.5033 97.9869 30.1756 97.0408C29.8202 96.0151 29.5259 94.984 29.0699 93.9969C28.6554 93.0996 28.0598 92.1571 28.0598 91.1438C28.0598 90.346 28.0695 89.9737 28.6643 89.3794C29.0485 88.9955 29.4842 88.6786 29.8892 88.3144C30.1425 88.0866 31.5772 87.9941 31.6391 88.4893C31.6986 88.9645 32.8471 89.9029 33.1822 90.2377C34.1532 91.2079 35.0083 92.1299 36.2843 92.7094C37.7993 93.3975 38.8166 92.1532 40.2613 92.2087C40.7528 92.2276 41.347 93.4683 41.7329 93.8539C42.5872 94.7076 43.1222 95.8143 43.8089 96.7945C44.2238 97.3868 46.7701 101.41 47.8893 100.291C48.5753 99.606 48.9729 99.0164 49.8222 98.6145C50.6251 98.2345 51.2622 98.6613 51.6516 99.3615C52.0714 100.117 52.3422 100.83 53.1867 101.285C54.0201 101.733 54.4718 101.263 55.1912 100.864C56.818 99.9606 58.7971 107.332 59.0966 108.263C59.4744 109.437 60.2861 110.234 61.5624 110.234C63.036 110.234 63.4587 108.192 64.7759 107.953C65.6196 107.8 65.9294 108.214 66.2553 108.946C66.3963 109.263 66.2253 109.621 66.3985 109.948C66.5328 110.201 66.7593 110.399 66.8916 110.663C67.4102 111.699 67.5851 112.891 68.1563 113.89C68.5579 114.592 69.1174 115.436 69.4369 116.155C69.6659 116.669 70.8726 117.461 71.3698 117.538C72.1501 117.658 72.9489 117.569 73.7322 117.681C74.898 117.847 75.2025 119.988 75.7366 120.788C76.5581 122.019 77.0473 123.36 77.7092 124.682C78.2402 125.744 78.7525 126.28 79.9602 126.407C81.2397 126.542 82.4858 127.635 83.4521 128.386C84.08 128.874 84.8542 129.541 84.8997 130.405C84.9268 130.919 85.0538 131.519 85.2179 132.01C85.3353 132.362 85.218 132.801 85.361 133.123C85.654 133.781 85.8884 134.5 86.1564 135.157C86.3636 135.665 86.5356 136.123 86.6496 136.667C86.8083 137.425 86.871 138.435 87.5086 138.956C88.3474 139.642 89.436 140.092 90.2767 140.856C90.7965 141.328 91.3058 142.126 91.5573 142.779C91.7697 143.331 91.7813 143.993 92.13 144.496C92.704 145.324 93.1788 146.999 94.4605 146.999C95.172 146.999 95.3091 144.687 95.065 144.138C94.8191 143.585 94.2611 142.33 94.7071 141.786C95.3145 141.044 94.7881 139.424 94.4287 138.654C94.253 138.278 94.2788 137.637 94.2139 137.216C94.1317 136.682 93.8799 136.278 93.7128 135.777C93.1481 134.084 91.6197 133.384 90.8494 131.915C90.3565 130.975 89.8221 130.059 89.3381 129.117C88.6797 127.836 89.0073 126.405 88.654 125.032C88.2703 123.541 87.6693 122.525 86.6894 121.329C86.0571 120.557 84.7545 120.812 83.977 120.176C82.3394 118.837 82.3441 116.248 80.5727 114.955C80.0645 114.584 79.6092 114.219 79.0296 113.953C78.4771 113.7 77.7939 113.737 77.2797 113.381C76.3237 112.72 76.2458 111.255 75.8798 110.266C75.5891 109.48 75.5733 108.616 75.3071 107.818C75.0115 106.932 74.5576 106.153 73.9469 105.449C73.1487 104.529 72.5607 103.546 71.505 102.874C71.0376 102.577 70.6809 102.375 70.2324 102.008C69.7519 101.615 69.7747 101.42 69.5006 100.856C68.8289 99.4739 68.2345 97.8577 67.2893 96.6435C66.1435 95.1714 64.4068 92.6379 62.2783 92.6379C61.8432 92.6379 61.4372 92.6107 61.0215 92.7492C60.665 92.8679 60.3405 93.2101 59.9875 93.2101C59.2392 93.1532 58.9943 93.3979 58.7494 92.4191M77.8153 36.3901C77.5812 35.1911 77.648 34.4162 78.3828 33.4985C78.6178 33.205 78.9571 32.9029 79.2907 32.7362C79.4852 32.6391 79.5966 32.4604 79.8014 32.415C80.0364 32.3628 80.3191 32.3174 80.539 32.2197C80.8922 32.0629 81.5706 32.1945 81.9576 32.1945C82.458 32.1945 82.9877 32.331 83.2627 32.8118C83.8355 33.8133 84.0934 34.5546 83.8239 35.7664C83.7094 36.2812 83.3762 36.7456 83.3762 37.2972C83.3762 37.8582 84.354 37.7508 84.7381 37.7508C86.0051 37.7508 86.2979 37.8056 86.7241 38.9982C86.8354 39.3096 86.8933 40.1629 86.7556 40.4723C86.5813 40.8642 86.2387 41.5175 86.2134 41.9464C86.1878 42.3815 85.873 42.8013 85.873 43.3072C85.873 43.7764 85.9864 44.2815 85.9864 44.7813C85.9864 46.8262 86.071 49.0276 83.9437 49.9723C83.1724 50.3148 81.7138 50.2363 81.0497 49.7203C80.2523 49.1005 79.4902 48.3951 78.7737 47.6792C78.4307 47.3364 77.9255 47.2922 77.6766 46.8224C77.3829 46.2682 76.9074 46.0175 76.9074 45.3483C76.9074 44.1686 77.5727 43.2359 77.8216 42.1165C77.9373 41.5964 78.352 41.1638 78.5845 40.6991C78.8107 40.2472 78.8367 39.8472 78.8367 39.3383C78.8367 38.7706 78.8415 38.3777 78.5845 37.8642C78.3801 37.4557 78.0594 36.8949 77.9288 36.5035M78.6098 62.6977C78.6098 61.366 78.3828 60.191 78.3828 58.8423C78.3828 57.4751 79.0769 57.1413 80.5958 57.5949C81.526 57.5949 81.2811 57.4256 82.0144 57.1413C82.7477 56.8571 82.0144 57.1413 82.6953 56.8012C82.9303 56.8012 83.4917 56.7625 83.7167 56.6626C85.0208 56.0834 86.2135 57.3141 86.2135 58.5588C86.2135 59.5815 85.3318 60.7598 85.7595 61.7212C85.9368 62.1198 86.3669 62.6059 86.6422 62.9497C86.9503 63.3345 87.0079 64.0269 87.0079 64.512C87.0079 65.1327 87.0683 65.7689 86.6674 66.2696C86.3768 66.6326 86.1 67.4155 86.1 67.8572C86.1 68.4085 85.6771 68.8292 85.646 69.388C85.6133 69.9772 85.3055 70.5965 85.3055 71.2023C85.3055 72.2734 85.2459 73.4186 85.3055 74.4908C85.3556 75.3906 86.3992 76.6396 87.1781 76.9854C88.1458 77.4152 89.0506 78.8324 89.0506 79.8455C89.0506 80.57 88.8925 81.0253 88.7039 81.685C88.6403 81.9073 88.3673 82.0704 88.2562 82.2646C88.0915 82.5526 87.937 82.8625 87.8023 83.1655C87.5232 83.7929 87.0616 84.3117 86.7557 84.9231C86.497 85.44 86.4404 85.9094 86.4404 86.5106C86.4404 87.8789 87.2213 88.816 87.5816 90.0762L87.605 90.1579C87.9343 91.3079 88.3139 92.6339 87.8905 93.8561C87.7034 94.3961 87.4848 94.9581 87.1214 95.4121C86.7162 95.9182 86.679 96.7937 86.3774 97.3965C85.1776 99.7941 84.9651 102.66 84.9651 105.334V107.319C84.9651 107.627 85.139 108.892 84.9083 109.076C84.7808 109.178 84.5705 109.701 84.4859 109.87C84.3464 110.149 84.175 110.184 83.9689 110.349C83.5665 110.67 82.7556 110.42 82.4684 110.097C82.1075 109.691 82.12 108.956 82.0081 108.453C81.8634 107.802 81.7874 107.248 81.7874 106.556C81.7874 104.963 81.9009 103.399 81.9009 101.819C81.9009 100.929 81.9749 100.095 81.5857 99.2738C81.3061 98.6841 81.0039 97.9728 80.5643 97.4847C79.86 96.7028 79.5525 94.7622 80.0851 93.8309C80.7117 92.7351 80.1018 91.4809 79.6312 90.4227C79.024 89.0576 79.7817 87.984 80.1734 86.7122C80.3548 86.1231 80.3302 85.0897 80.2049 84.5262C80.1261 84.172 80.267 83.7991 80.1419 83.4489C80.0794 83.2741 79.916 82.6334 79.8014 82.5418C79.7011 82.4616 79.6209 81.9039 79.5429 81.748C79.3986 81.4598 79.0877 81.2468 78.925 80.9543C78.7534 80.6456 78.4526 80.4764 78.2945 80.1605C78.1211 79.814 77.9957 79.4886 77.8406 79.1399C77.515 78.4081 77.6275 77.1755 77.8153 76.4248C77.9083 76.0532 78.1755 75.5042 78.4458 75.2341L78.4663 75.2137C78.6611 75.0193 79.0017 74.6794 79.07 74.4404C79.1486 74.1655 79.4937 73.9003 79.6059 73.6088L79.6064 73.6075C79.7206 73.3109 79.8731 72.9148 80.0851 72.6764C80.5618 72.1406 80.03 70.4987 79.8329 69.9298C79.5682 69.1655 79.1477 68.5968 78.6602 67.9706C78.0906 67.2388 77.7019 67.0285 77.7019 66.0491C77.7019 65.453 77.9248 64.9956 78.181 64.512C78.4952 63.9191 78.4963 63.3693 78.4963 62.6977M93.2227 89.8245C93.2227 89.6067 93.0638 88.1963 93.2829 88.0212C93.4141 87.9163 93.6814 87.0113 93.704 86.819C93.7963 86.0355 94.7885 85.194 95.2681 84.595C95.755 83.9869 96.2784 83.4586 96.859 82.8785C97.3368 82.4012 97.5542 81.3981 97.5542 80.748C97.5542 80.29 97.7948 79.8919 97.7948 79.4857V77.9228C97.7948 77.5002 97.7138 77.0059 97.9151 76.6538C98.1162 76.3023 98.4448 76.0282 98.637 75.6921C98.8389 75.3391 99.1422 74.7672 99.3857 74.4632C99.6088 74.1845 99.4793 73.4789 99.4793 73.114C99.4793 72.189 99.9605 71.461 99.9605 70.5293C99.9605 68.8913 101.72 66.7748 103.303 66.2883C104.007 66.0718 105.366 65.9721 105.856 65.3599C106.107 65.0459 106.723 64.9817 107.033 64.672C107.315 64.3894 107.726 64.2203 107.928 63.8572C108.157 63.4452 108.511 63.069 108.617 62.5949C108.732 62.0785 108.67 61.4234 109.105 61.032C109.529 60.6507 110.026 60.4561 110.548 60.2239C110.987 60.0291 111.515 59.462 111.992 59.4091C112.536 59.3487 113.094 58.6395 113.623 58.4473C114.179 58.2456 114.664 58.0422 115.241 57.9598C115.681 57.897 116.36 57.6753 116.805 57.873C117.244 58.0678 117.261 58.5933 117.647 58.8347C118.231 59.1992 118.089 59.5293 118.911 59.5293C119.393 59.5293 119.834 59.4091 120.294 59.4091C121.446 59.4091 122.677 59.1686 123.844 59.1686C124.64 59.1686 126.505 59.1 126.551 60.2773C126.606 61.7064 126.359 62.4674 125.174 63.3696C123.675 64.5109 122.455 64.5529 120.655 64.4583C119.462 64.3955 118.247 64.4583 117.052 64.4583C115.893 64.4583 114.76 65.1675 114.76 66.3818C114.76 66.8229 115.241 66.9063 115.241 67.4036C115.241 67.9109 114.932 67.9994 114.639 68.3654C113.431 69.8748 111.923 71.1308 110.368 72.3393L110.316 72.3799C108.99 73.4103 107.774 74.3547 106.698 75.6988C106.265 76.2404 105.535 77.1209 105.495 77.8026C105.476 78.1285 105.396 78.9014 105.676 79.125C105.78 79.2085 105.993 79.5369 106.097 79.666C106.22 79.8196 106.447 79.8632 106.578 80.0266C107.083 80.6578 108.022 80.8694 108.142 81.89C108.205 82.4257 108.215 82.6012 107.962 83.159C107.82 83.4713 107.491 84.3337 107.24 84.5348C107.001 84.7257 106.967 85.3749 106.725 85.6435C106.43 85.9715 106.246 86.503 106.037 86.8791C105.523 87.8023 104.591 88.8412 104.533 89.9447C104.508 90.4026 104.533 90.8686 104.533 91.3272C104.533 91.8373 104.8 92.0774 104.9 92.5294C105.091 93.3863 106.945 92.8008 107.327 92.496C107.678 92.2148 108.35 92.0307 108.797 91.8682C109.29 91.6892 109.738 91.3543 110.254 91.2604C111.277 91.0747 112.429 91.0652 113.316 91.5343C113.836 91.8096 113.814 91.6486 114.332 91.5009C114.666 91.4055 115.104 90.9457 115.368 90.7261C116.065 90.1459 117.89 91.4433 118.342 91.8949C119.515 93.0663 121.43 94.273 123.115 93.3108C123.568 93.0523 124.134 92.72 124.505 92.3491C124.923 91.9314 125.324 91.5076 125.949 91.5076C126.441 91.5076 126.991 91.3779 127.326 91.8081C127.713 92.305 127.634 92.8995 127.634 93.4912C127.634 93.7742 127.404 94.6896 127.152 94.847C126.678 95.1429 126.553 95.9812 126.163 96.4098C125.389 97.2605 124.383 98.4803 123.128 98.4803H122.313C121.91 98.4803 121.749 98.3116 121.377 98.2131C120.884 98.0827 120.175 97.6024 119.666 97.9727C119.218 98.2983 118.564 98.4678 118.062 98.7875C117.515 99.135 117.026 99.4504 116.504 99.8561C116.048 100.21 115.473 100.616 115 100.911C114.541 101.198 114.3 101.606 113.677 101.606C113.33 101.606 112.53 100.719 112.139 101.032C111.602 101.461 111.03 101.793 110.522 102.301C109.66 103.161 108.931 104.404 108.563 105.58C108.22 106.678 107.643 108.183 106.792 109.033C106.29 109.534 105.28 110.712 104.466 110.015C103.623 109.293 103.69 108.058 103.69 107.016C103.69 106.058 103.742 104.797 102.908 104.131C102.126 103.505 101.132 102.736 100.829 101.753C100.454 100.533 101.366 99.5663 100.803 98.2999C100.289 97.1451 99.0967 97.2781 98.0354 97.2781C97.5688 97.2781 96.9841 97.3719 96.5315 97.2714C95.9351 97.139 95.6472 96.7876 95.208 96.4365C94.5963 95.9476 94.6162 94.3064 94.9339 93.6715C95.1107 93.3182 95.4689 92.9413 95.6959 92.6496C95.9916 92.2698 96.2531 91.6771 96.3577 91.207C96.4868 90.6266 97.7381 88.8878 96.8323 88.4086C96.1441 88.0446 95.5072 89.3999 94.974 89.7043C94.4218 90.0196 93.2227 91.2595 93.2227 89.9447M200.911 82.1938C200.911 81.1891 200.707 79.9354 201.197 79.0551C201.727 78.1013 202.053 77.41 202.053 76.316C202.053 75.4427 202.324 74.2045 203.367 74.2045C204.33 74.2045 204.338 75.5526 204.338 76.2018C204.338 77.1499 203.729 77.9964 204.478 78.7445C204.73 78.9963 205.138 79.4249 205.138 79.797C205.138 80.3253 204.909 80.7912 204.909 81.2807C204.909 81.8126 204.973 82.2528 204.389 82.086C204.077 81.9971 203.616 81.7373 203.31 81.7373C203.094 81.7373 202.974 81.6231 202.739 81.6231C202.436 81.6231 202.252 81.8806 201.996 82.0226C201.753 82.1577 200.911 82.3665 200.911 81.9655M219.267 85.7781C219.477 85.6704 219.888 85.8799 220 86.0196C220.449 86.5798 220.651 87.5112 221.275 87.9013C221.758 88.2029 222.486 88.5815 222.663 89.199C222.823 89.7598 223.151 90.6179 223.719 90.9332C223.91 91.0391 224.091 91.03 224.198 91.2223C224.317 91.4378 224.428 91.7049 224.593 91.8888C224.846 92.1697 224.916 92.5458 225.077 92.868C225.424 93.5601 225.787 94.3073 226.057 95.0505C226.301 95.7216 226.934 96.3363 227.014 97.0089C227.088 97.6407 227.671 98.3502 227.97 98.8729C228.385 99.5978 228.962 99.7819 229.729 99.563C230.261 99.4112 230.33 98.1802 230.544 97.7521C230.736 97.368 230.679 96.8909 230.863 96.478C231.028 96.107 231.078 95.7495 231.164 95.3631C231.252 94.968 231.37 94.7273 231.37 94.3014C231.37 93.9135 231.284 93.5475 231.264 93.1865C231.221 92.4076 231.052 91.7386 231.052 90.9568C231.052 90.7703 231.222 90.1767 231.37 90.0838C231.512 89.9951 231.902 89.5824 231.902 89.4173C231.902 88.9862 232.008 88.5049 232.008 88.0429C232.008 87.715 231.83 86.7724 232.032 86.521C232.182 86.3336 232.405 85.8862 232.433 85.648C232.482 85.229 232.875 85.0139 232.958 84.6393C233.115 83.9353 232.964 83.0265 232.964 82.3034C232.964 81.5547 233.136 80.9258 233.177 80.233C233.194 79.9344 233.339 79.4697 233.472 79.1713C233.606 78.871 233.513 78.3927 233.608 78.0623C233.708 77.7104 233.814 77.2909 233.814 76.8885C233.814 76.5352 234.027 76.2049 234.027 75.8798C234.027 75.3091 234.193 74.3911 234.428 73.8624C234.592 73.4939 234.558 73.0943 234.558 72.6945C234.558 72.3507 234.771 72.0931 234.771 71.792V71.758C234.771 70.5395 234.771 68.5536 233.124 68.5536C231.646 68.5536 231.117 70.1437 230.331 71.1254C230.123 71.3853 230.105 71.7607 229.859 72.0338C229.623 72.2958 229.477 72.8772 229.458 73.2254C229.44 73.5365 229.179 73.9431 229.139 74.2871C229.12 74.4495 228.926 74.4764 228.926 74.6588C228.926 74.8187 228.85 75.0294 228.814 75.1896C228.648 75.9385 228.271 76.6049 228.07 77.3073C227.92 77.833 227.183 78.3132 227.12 78.8527C227.04 79.5297 226.907 80.377 226.907 81.0293C226.907 81.4181 226.736 82.5353 226.163 82.5689C225.191 82.626 225.493 81.7718 225.184 81.1886C224.874 80.6046 224.674 79.9853 224.357 79.4308C224.054 78.9002 223.398 78.3218 222.763 78.3218C222.134 78.3218 221.169 78.504 221.169 77.6317C221.169 76.9862 220.811 76.2463 220.632 75.6202C220.464 75.0346 220.213 74.2837 220.213 73.6501C220.213 72.9894 219.526 72.5479 219.369 71.9984C219.12 71.1282 218.662 70.8607 218.005 70.335C217.48 69.9157 216.652 69.9412 216.151 70.4412C215.662 70.9295 215.75 71.6443 215.75 72.3229C215.75 73.8798 215.537 75.3339 215.537 76.8885C215.537 77.6647 215.431 78.4823 215.431 79.2243V80.3923C215.431 80.7629 215.218 81.1252 215.218 81.5071C215.218 82.2908 215.112 83.0196 215.112 83.7899C215.112 84.6269 214.919 85.1372 214.557 85.8604C214.277 86.4203 213.947 87.1333 213.542 87.5828C213.447 87.6883 212.994 88.1736 212.987 88.3024C212.965 88.6711 212.987 89.0478 212.987 89.4173C212.987 90.7079 213.608 91.623 214.634 92.4433C214.865 92.6279 214.872 93.0117 215.006 93.2455C215.204 93.5927 215.325 93.7471 215.325 94.1952V96.478C215.325 97.9344 216.193 99.1207 217.662 99.4509C219.065 99.4509 220 97.69 220 96.4249C220 96.1052 220.015 95.4282 219.735 95.2039C219.475 94.996 219.681 94.4483 219.681 94.2011C219.681 93.7964 219.894 93.5214 219.894 93.1334V91.995C219.894 91.1618 219.57 90.4986 219.067 89.8715C218.648 89.3475 219.044 88.1981 219.044 87.6123C219.044 87.2896 219.012 86.9233 219.026 86.5694M219.267 85.7781C219.215 85.8044 219.176 85.8496 219.156 85.9193C219.13 86.0089 219.07 86.2462 219.035 86.4121M219.267 85.7781C219.213 85.9739 219.178 86.1659 219.097 86.3912C219.062 86.4877 219.04 86.5438 219.026 86.5694M219.267 85.7781C219.292 85.6869 219.32 85.5948 219.36 85.4981M219.035 86.4121C219.009 86.5391 218.997 86.6244 219.026 86.5694M219.035 86.4121C219.063 86.0788 219.142 85.7646 219.339 85.5182C219.346 85.5095 219.353 85.5029 219.36 85.4981M219.035 86.4121C219.031 86.4641 219.028 86.5166 219.026 86.5694M219.36 85.4981C219.368 85.4775 219.377 85.4567 219.386 85.4357C219.412 85.3776 219.761 85.5681 219.681 85.648C219.548 85.7814 219.464 85.4249 219.36 85.4981ZM239.357 95.4703C239.357 94.9101 239.25 94.3998 239.25 93.8152V93.8131C239.25 93.494 239.25 92.9075 239.44 92.6702C239.605 92.4642 239.678 91.7291 239.678 91.4659C239.678 90.9809 239.9 90.5547 240.319 90.3684C240.516 90.2811 240.764 90.4082 240.96 90.3209C241.161 90.2316 241.273 90.0517 241.441 89.9175C241.674 89.7317 241.915 89.3225 242.053 89.0632C242.261 88.6692 242.532 88.5306 242.931 88.4166C243.592 88.2281 243.377 88.5179 243.792 88.8497C243.898 88.9339 243.943 89.9649 243.953 90.1311C243.981 90.6486 244.103 91.2805 244.172 91.8337C244.238 92.3574 244.281 92.806 243.739 93.1448C243.377 93.3706 243.174 93.9141 242.831 94.1889C242.222 94.6755 241.852 95.4716 241.227 95.9568C240.93 96.1881 240.476 96.3246 240.105 96.3246C239.463 96.3246 239.639 95.9999 239.357 95.5771M232.838 99.5282C232.838 98.2324 232.576 96.828 233.349 95.767C233.648 95.3549 233.586 94.2677 233.586 93.7618C233.586 93.1598 233.693 92.6266 233.693 91.9998V91.9552C233.693 90.9224 233.693 89.384 234.358 88.553C235.04 87.7012 235.809 86.9855 236.365 86.0139C236.906 85.0678 237.884 84.5499 238.526 83.7477C239.251 82.8425 240.558 82.4552 241.548 82.0154C242.136 81.7544 242.79 81.5398 242.89 80.8408C243.001 80.0602 243.167 79.4495 243.311 78.622C243.532 77.3565 243.569 76.1234 244.06 75.021C244.261 74.5675 244.391 73.8211 244.861 73.3658C245.126 73.1087 245.663 72.339 245.663 72.0191C245.663 70.4494 245.589 68.8862 246.328 67.4926C246.631 66.9206 246.919 66.4659 246.945 65.8078C246.973 65.1077 246.799 64.2791 246.951 63.595C247.268 62.1689 247.479 60.7865 248.204 59.4838C248.699 58.5926 249.809 57.5616 250.846 57.5616C251.542 57.5616 252.116 57.4665 252.502 58.143C252.857 58.7631 253.037 59.0495 253.037 59.8041C253.037 60.9594 252.123 62.3129 251.647 63.3814C251.269 64.2324 250.999 65.0441 250.798 65.9443C250.666 66.5416 250.792 67.3044 250.792 67.9198C250.792 68.4736 250.977 69.1062 251.113 69.6283C251.249 70.1505 251.349 70.3135 251.494 70.6399C251.618 70.9196 251.972 71.2213 252.182 71.4437C252.554 71.8377 252.474 72.5976 252.265 73.2353C252.107 73.7195 251.952 74.4787 251.855 74.9142C251.67 75.7488 251.678 76.5194 251.279 77.3169C250.945 77.9843 250.746 78.6755 250.448 79.3458C249.711 81.0028 249.831 83.007 249.831 84.7918C249.831 86.3237 250.159 87.9514 249.807 89.4904C249.474 90.9468 249.509 92.7242 250.258 94.0347C251.105 95.5153 251.391 97.3145 251.944 98.9112L251.97 98.9842C252.186 99.6078 252.398 100.22 252.692 100.81C253.031 101.486 252.921 102.169 253.144 102.892C253.531 104.149 253.38 105.865 252.134 106.576C251.689 106.83 251.065 106.79 250.525 106.79C249.722 106.79 249.656 106.189 249.213 105.698C248.45 104.851 247.159 103.8 247.159 102.572C247.159 102.139 247.197 100.52 246.892 100.276C246.537 99.9925 246.049 99.0672 245.449 99.635C244.981 100.078 244.601 100.591 244.19 101.047C243.829 101.448 243.674 102.109 243.145 102.411C242.046 103.039 240.612 102.945 239.357 102.945C238.82 102.945 238.298 102.599 237.671 102.281C237.044 101.963 236.309 101.718 235.777 101.504C235.533 101.406 235.09 101.357 234.868 101.344C234.645 101.33 234.383 101.194 234.18 101.017C233.86 100.739 232.881 100.005 232.881 99.5157M130.365 75.4475C130.365 74.1184 130.998 73.087 131.488 71.8635C131.761 71.1807 132.223 70.3952 132.467 69.9058C132.712 69.4164 132.712 68.6823 132.888 67.9806C133.063 67.2789 133.202 66.2352 133.447 65.2563C133.692 64.2775 133.692 63.5433 133.937 62.5645C134.056 62.0889 134.542 60.8547 134.74 60.6068C135.252 59.9676 135.406 58.6492 135.406 57.915C135.602 57.1809 135.559 56.227 135.896 55.4679C136.76 53.5255 137.263 51.2877 137.263 49.1055V43.5693C137.263 41.5904 137.611 39.5616 137.611 37.6041C137.611 36.3256 138.59 36.1359 140.305 36.3806C141.21 36.3806 140.909 35.4923 141.734 35.2568C143.668 34.7046 144.924 36.3007 145.295 37.9691C145.491 38.85 145.295 39.5652 145.295 40.5406C145.295 40.9934 144.883 43.3367 144.592 43.5693C144.336 43.7743 143.874 45.655 143.874 46.0105C143.874 46.8832 143.335 47.3893 144.305 48.1644C145.797 49.3573 143.772 52.5599 144.8 53.8444C146.124 55.4983 144.663 57.5425 144.449 59.3648C144.358 60.1311 143.874 60.823 143.874 61.6624C143.874 62.3785 144.225 63.3133 144.513 63.9599C144.67 64.3137 144.655 66.6669 145.247 66.1936C145.799 65.7527 146.448 65.4634 146.972 65.0448C147.517 64.6087 148.112 64.4797 148.696 63.8961C149.248 63.3452 149.713 62.8916 150.357 62.5239C151.307 61.9816 152.254 61.478 153.215 60.9444C153.876 60.5777 154.584 59.5689 155.243 59.3808C156.416 59.046 156.954 59.7313 157.798 58.6469C158.448 57.8125 158.876 56.8769 159.826 56.3493C161.417 55.4663 163.405 54.6431 164.569 53.1902C165.773 51.6854 167.211 50.5176 168.88 49.5365C170.42 48.6314 173.511 47.0039 175.327 46.9031C178.449 46.7298 174.102 50.126 173.191 51.0363C172.257 51.9695 169.925 53.0207 169.742 54.4826C169.533 56.1518 167.343 57.0104 166.581 58.3437C165.869 59.5877 163.248 60.1907 162.125 61.088C160.989 61.9968 160.663 63.7691 159.97 64.981C159.131 66.4483 158.495 68.2955 157.511 69.5601C156.623 70.701 153.891 72.4937 152.497 72.5756C151.12 72.6565 147.996 73.973 147.898 75.7347C147.845 76.6919 147.826 77.5213 148.249 78.3194C148.623 79.0246 149.237 79.5479 149.335 80.3298C149.814 84.1596 152.826 86.5672 155.724 88.8827L155.802 88.9455C156.563 89.554 156.854 90.2791 157.814 90.8123C158.782 91.3495 159.534 91.3601 160.385 92.0887C162.041 93.5068 162.207 95.4221 162.573 97.4336C162.843 98.9188 164.097 101.492 165.287 102.443C166.278 103.236 166.293 106.326 166.293 107.469C166.293 109.721 166.868 111.904 166.868 114.075C166.868 115.211 167.842 116.198 168.034 117.25C168.159 117.94 168.632 119.87 169.04 120.393C170.025 121.659 170.446 124.361 170.876 125.865C171.143 126.799 170.908 127.716 169.886 127.716C169.315 127.716 169.029 127.811 168.736 127.285C168.613 127.064 168.154 126.272 167.794 126.631C167.414 127.011 167.76 128.896 167.73 129.439C167.685 130.257 165.677 131.188 165.207 130.301C164.805 129.541 165.425 128.483 164.792 127.78C163.919 126.811 163.419 126.542 163.419 125.132C163.419 123.412 163.74 121.559 162.493 120.313C160.985 118.806 159.995 117.323 159.666 115.192C159.311 112.883 159.175 110.21 157.67 108.331C157.198 107.741 156.382 107.44 155.946 106.895C155.547 106.397 154.892 105.737 154.365 105.315C153.915 104.956 153.646 103.413 153.646 102.874C153.646 101.62 153.351 100.615 153.087 99.428C152.727 97.8075 151.613 96.2417 150.549 94.9127C150.119 94.3757 149.866 93.5055 149.271 93.03C148.994 92.8085 148.7 92.7468 148.409 92.4556C148.097 92.1439 147.984 90.5482 147.652 90.2167C147.022 89.5869 145.729 89.6912 145.203 90.2167C144.474 90.9452 144.528 91.9366 143.586 91.4664C141.908 90.6281 141.065 93.2185 141 94.4021C140.971 94.9243 140.454 95.3159 140.425 95.8381C140.4 96.2788 140.544 96.8627 140.361 97.2741C139.983 98.1235 139.562 99.6438 139.562 100.577V100.604C139.562 102.404 139.562 105.116 138.7 106.624C137.684 108.4 137.483 110.376 136.544 112.064C135.845 113.323 133.634 115.683 132.377 113.484C131.856 112.573 131.227 112.324 131.227 111.203C131.227 110.203 131.172 109.185 131.227 108.187C131.272 107.386 131.8 106.27 132.153 105.603C132.575 104.807 132.444 103.508 133.015 102.794C134.095 101.446 133.762 98.827 134.453 97.2741C135.158 95.6875 135.251 93.2549 135.251 91.5302C135.251 90.4196 134.163 90.0505 134.101 88.9455C134.039 87.8267 134.152 87.0952 134.836 86.2172C136.936 83.5194 137.611 77.437 137.611 74.0659C137.611 72.4381 136.106 73.4577 135.651 73.8211C135.101 74.2614 134.232 75.9307 133.814 76.4527C133.331 77.0558 132.241 77.4144 131.488 77.2471C130.291 76.9814 130.365 76.4006 130.365 75.4475ZM192.002 98.5147C191.731 97.1317 191.67 95.3062 192.344 94.127C192.639 93.6114 192.754 93.147 193.233 92.6686C193.669 92.233 194.172 91.4842 194.172 90.8678C194.172 90.239 194.334 89.4746 194.508 88.8642C194.693 88.2167 194.65 87.4853 194.971 86.9239C195.286 86.3741 195.771 85.8855 195.771 85.2183C195.771 84.7024 196.253 83.9745 196.513 83.5063C196.833 82.9324 196.228 82.283 195.974 81.8514C195.554 81.1387 195.428 80.639 195.428 79.797C195.428 78.3941 195.534 76.8485 196.393 75.7453C196.746 75.2915 197.222 74.7066 197.256 74.0904C197.303 73.2406 197.26 72.6818 197.713 71.9472C198.032 71.4285 198.501 71.0431 199.084 71.0088C199.829 70.965 200.548 70.9789 201.114 70.4128C201.535 69.9925 201.939 69.0296 201.939 68.4408C201.939 67.7631 202.253 67.0592 202.402 66.3865C202.542 65.7599 203.119 65.2724 203.196 64.6174C203.262 64.0563 203.851 63.3285 204.249 62.9308L204.255 62.9244C204.642 62.538 205.074 62.1065 205.652 62.1065C206.148 62.1065 207.12 61.8063 207.301 62.6201C207.445 63.2663 207.422 63.9715 207.422 64.6745C207.422 65.4221 207.536 66.1406 207.536 66.843C207.536 68.3943 207.372 69.748 208.361 70.9834C208.704 71.4117 208.679 72.6273 208.679 73.1773V75.3712C208.679 75.8229 208.481 77.1056 208.85 77.4002C209.027 77.5421 209.077 77.9266 209.224 78.1104C209.467 78.4138 209.477 79.1115 209.764 79.3405C210.179 79.6726 210.297 80.857 210.386 81.3441C210.523 82.1019 210.305 82.8899 210.512 83.6141C210.872 84.8718 212.029 86.0664 212.105 87.4439C212.143 88.1143 212.334 88.7292 212.334 89.4412V91.6097C212.334 93.0951 212.562 94.5463 212.562 96.0038V100.683C212.562 101.139 213.022 102.872 212.619 103.194C212.462 103.32 212.087 103.913 211.966 104.107C211.748 104.455 211.407 104.307 211.128 104.228C210.11 103.937 209.13 101.775 209.021 100.797C209.01 100.7 208.56 99.9781 208.45 99.9097C208.191 99.7481 207.958 99.2789 207.708 99.0283C207.094 98.4149 207.246 97.8638 207.073 97.0881C206.932 96.4526 206.622 95.9239 206.622 95.2619C206.622 94.9098 206.467 94.5851 206.369 94.2665C206.244 93.8612 206.197 93.344 205.994 92.9793C205.427 91.9586 205.322 89.5731 203.881 89.27C203.364 89.1613 203.285 88.4461 202.967 88.1287C202.743 87.9042 202.181 88.0145 201.882 88.0145C201.284 88.0145 201.197 89.2244 200.854 89.4983C200.38 89.8772 200.031 90.7263 199.997 91.3244C199.977 91.6826 199.883 91.9297 199.883 92.2945C199.883 92.6486 200.095 92.8653 200.112 93.1505C200.127 93.4124 200.212 94.0237 200.048 94.2347C199.835 94.5081 199.53 94.7079 199.287 94.9513C199.124 95.1134 199.087 95.3921 198.969 95.598C198.827 95.8476 198.544 96.0272 198.398 96.2828C198.276 96.496 198.06 96.8253 197.916 97.0056C197.513 97.5094 197.971 98.765 198.049 99.3136C198.146 99.9899 197.657 100.752 197.199 101.21C196.767 101.641 196.28 102.585 196.12 103.143C196.01 103.527 195.421 104.711 195.028 104.798C194.311 104.958 193.486 104.966 193.486 103.993C193.486 103.266 193.413 102.635 193.372 101.939C193.304 100.785 192.377 99.6403 192.002 98.5147ZM288.23 36.6253C287.496 39.3171 285.782 43.7532 285.572 47.5412C285.549 47.9492 285.27 49.8294 285.04 50.1166C284.561 50.7147 284.74 51.7465 284.323 52.2671C283.828 52.8847 284.15 54.2149 283.605 54.8956C283.13 55.4896 283.366 56.4492 282.888 57.0462C280.771 59.69 280.55 63.5469 280.55 66.8963C280.55 67.6172 281.128 68.4375 281.267 69.0469C281.519 70.1505 281.313 70.824 281.692 71.6754C281.924 72.1958 281.984 73.7756 281.984 74.3039C281.984 75.3112 282.224 76.1737 282.224 77.1713C282.224 79.0713 281.745 80.5096 281.745 82.4283C281.745 83.4112 281.708 84.1849 281.32 85.0567C280.955 85.8782 280.18 86.4509 279.779 87.2073C279.291 88.1285 278.586 88.9279 278.105 89.8358C277.704 90.5915 277.239 91.779 276.67 92.4112C276.361 92.7544 276.033 94.3876 276.006 94.8538C275.947 95.8444 275.767 96.719 275.767 97.7212C275.767 98.723 275.95 99.6404 276.006 100.589C276.048 101.311 276.723 101.91 276.723 102.739C276.723 103.353 277.007 104.81 277.255 105.368C277.624 106.199 277.441 107.325 277.441 108.235C277.441 109.169 277.25 110.034 277.201 110.864C277.154 111.671 276.484 112.342 276.484 113.253C276.484 114.12 276.26 115.348 276.67 116.121C277.184 117.09 277.441 117.723 277.441 118.869C277.441 120.79 277.201 122.497 277.201 124.364C277.201 126.057 276.752 128.467 277.215 130.086C277.726 131.874 278.884 133.318 280.669 131.891C282.039 130.797 281.506 128.338 281.506 126.754C281.506 125.227 282.74 123.455 283.167 121.962C283.589 120.487 284.376 118.811 284.376 117.196C284.376 116.198 284.798 115.179 284.602 114.103C284.42 113.103 283.898 112.276 283.898 111.222C283.898 109.679 283.189 107.149 284.19 105.899C284.639 105.338 284.431 104.343 284.907 103.748C285.436 103.087 285.938 102.401 286.475 101.73C287.167 100.866 288.92 98.8331 288.92 97.7212C288.92 93.9077 289.637 90.4866 289.637 86.7294V86.7092C289.637 85.6666 289.637 84.8179 290.062 83.862C290.377 83.1535 290.173 81.6393 290.647 81.0476C290.992 80.6161 291.072 78.9607 291.072 78.3661C291.072 77.3555 291.257 76.4818 291.311 75.4986C291.419 73.5603 292.879 71.6686 292.985 69.7638C293.038 68.817 293.224 67.897 293.224 66.8963C293.224 65.9548 292.746 65.184 292.746 64.3873C292.746 62.5141 291.55 60.7543 291.55 58.8914C291.55 58.0423 291.331 56.8511 291.564 56.0373C291.758 55.3594 292.539 54.777 292.733 54.0991C293.2 52.4651 293.486 50.7483 293.955 49.1077C294.162 48.3834 294.686 47.6282 294.885 46.9305C295.133 46.0652 296.325 46.1383 296.559 46.9571C297.022 48.5756 297.29 50.4074 297.29 52.2008C297.29 53.9499 296.903 56.1698 297.768 57.6834C298.016 58.1173 299.137 59.0957 299.496 59.3833C300.08 59.8497 299.486 60.9773 299.921 61.5199C300.949 62.805 302.845 63.5464 303.66 65.0116C305.312 67.9839 304.2 71.5333 305.129 74.7818C305.599 76.4229 307.366 78.3385 307.823 79.9389C308.344 81.7604 306.605 84.3303 308.41 85.7736C309.814 86.8959 308.558 89.972 308.803 91.4402C309.048 92.9085 308.987 94.0832 310.272 95.1109C311.497 95.6003 314.03 96.061 314.03 98.0474V101.664C314.03 102.484 314.926 102.452 314.748 103.934C314.812 105.028 317.296 107.899 318.599 106.857C319.856 105.852 319.531 103.398 319.531 101.783C319.531 99.8436 319.77 98.0131 319.77 96.0486C319.77 95.0651 319.86 93.9896 320.54 93.2342C321.123 92.5873 321.873 91.724 321.922 90.7916C321.975 89.7994 322.58 88.9983 322.64 87.9242C322.694 86.956 323.118 86.0956 323.118 85.0567C323.118 83.08 322.78 81.0248 323.782 79.3219C325.602 76.231 328.315 73.6982 329.11 70.1222C329.325 69.1543 329.575 68.5454 329.575 67.4937C329.575 66.7361 330.162 65.7058 329.695 64.8653C329.243 64.0538 329.336 63.1803 329.336 62.2368C329.336 61.3111 329.097 60.4336 329.097 59.6083C329.097 58.5329 329.338 57.7487 329.562 56.7409C329.679 56.2121 330.026 54.5403 330.412 54.2319C330.75 53.9619 331.13 51.9577 331.236 51.4839C331.375 50.8567 332.114 49.9573 332.804 49.9573C333.394 49.9573 333.162 54.7088 333.162 55.3072C333.162 56.1981 333.095 57.1698 333.521 57.9356C333.944 58.6972 334.723 59.3214 335.075 60.1128C335.844 61.8415 336.749 62.5739 336.749 64.6263C336.749 66.6035 336.14 68.1707 336.032 70.0027C336.01 70.3748 335.498 71.8046 335.261 72.1002C334.69 72.8134 334.721 74.001 334.066 74.7287C333.39 75.4787 333.15 80.2023 333.827 81.0476C334.338 81.6859 334.188 83.0624 334.544 83.862C334.972 84.8233 334.836 86.1598 334.836 87.2073C334.836 89.3302 335.075 91.3011 335.075 93.4201C335.075 95.821 335.614 97.7371 336.563 99.8718C337.3 101.527 337.613 103.018 338.955 104.359C340.505 105.907 340.576 107.003 340.576 109.191C340.576 111.233 340.337 113.123 340.337 115.165C340.337 115.866 341.102 116.779 341.586 117.262L342.303 117.979C342.656 118.332 342.351 118.798 342.542 119.227C342.935 120.11 342.967 121.848 342.967 122.811C342.967 123.715 343.149 124.414 343.499 125.201C343.823 125.93 344.256 127.243 345.12 127.351C345.856 127.443 346.702 128.879 346.98 129.502C347.676 131.067 346.375 133.491 347.697 134.812C348.123 135.237 349.68 135.114 350.089 134.706C350.824 133.971 351.102 134.806 351.816 135.184C354.04 136.36 352.533 132.276 352.533 131.414C352.533 126.935 348.707 123.35 348.707 118.882C348.707 116.831 349.346 115.034 348.959 112.908C348.778 111.913 348.108 110.885 347.631 110.027C347.17 109.198 347.012 108.081 346.807 107.16C346.423 105.432 346.794 103.199 346.794 101.425C346.794 100.456 346.654 99.6208 346.196 98.7965C345.79 98.0657 345.082 97.0145 344.894 96.168C344.465 94.2417 344.084 92.7919 344.416 90.8049C344.624 89.5524 345.592 88.3752 345.824 87.1011C346.039 85.9194 346.18 84.3382 346.674 83.2513C347.443 81.5616 346.555 78.8251 346.555 77.0518V76.9697C346.554 76.0057 346.554 75.0819 346.807 74.1977C346.949 73.7006 347.402 72.0172 346.98 71.4895C346.489 70.8769 345.409 70.4206 345.359 69.5248C345.293 68.3386 345.359 67.1292 345.359 65.9405C345.359 65.064 346.149 63.6547 345.784 62.8342C345.325 61.8027 345.359 60.9047 345.359 59.7278C345.359 59.0562 345.334 57.7851 344.934 57.2852C344.522 56.771 343.961 54.9055 343.924 54.2319C343.845 52.8112 342.728 51.304 342.728 49.9307V46.5323C342.728 44.9054 343.623 42.2047 342.914 40.6116C342.414 39.4865 342.388 38.2149 341.825 37.0273C341.292 35.9039 341.222 34.5375 340.868 33.3899C340.607 32.5422 340.386 31.232 340.337 30.3366C340.278 29.275 340.098 28.1696 340.098 27.0444C340.098 25.2398 340.725 23.3116 341.041 21.575C341.255 20.3965 341.054 18.9493 341.054 17.7518C341.054 16.8873 341.127 16.0982 341.532 15.3888C341.721 15.0591 342.141 14.5285 342.237 14.1941C342.763 12.3532 343.467 10.2513 344.283 8.45919C345.077 6.71197 346.076 4.38821 346.076 2.49866C346.076 1.61902 344.504 1.14799 344.057 1.91455C343.592 2.7107 343.211 3.55292 342.728 4.397C341.748 6.11041 339.91 7.6315 338.663 9.18933C338.07 9.92899 337.695 10.7422 337.108 11.4461C336.428 12.2617 336.777 13.8287 336.152 14.579C335.793 15.0093 335.793 16.9156 335.793 17.5336V17.5527C335.793 18.8487 335.052 20.826 334.252 21.8538C333.796 22.4395 333.513 23.1442 333.029 23.7654C332.346 24.6437 331.361 25.26 330.664 26.155C329.876 27.168 329.293 28.5548 328.858 29.7525C328.243 31.4403 328.032 33.3798 327.303 34.9829C326.076 37.6811 326.867 40.9427 325.39 43.5985C324.174 45.7853 325.428 48.1004 323.477 50.0502C321.881 51.6442 319.733 53.6607 319.305 56.0107C318.883 58.3275 317.906 60.6508 317.604 63.0598C317.454 64.2599 316.9 65.197 316.9 66.4317C316.9 67.2685 316.546 68.0829 316.435 68.9142C316.353 69.5312 316.567 70.2432 316.302 70.8258C315.768 72.0012 316.501 73.5567 316.063 74.7818C315.7 75.797 315.944 77.1881 315.944 78.2599C315.944 79.4261 315.684 80.5636 315.226 81.5919C315.026 82.0424 314.874 82.5459 314.402 82.6805C313.783 82.8574 313.994 82.6221 313.605 82.1362C313.161 81.5809 313.61 79.6294 313.366 78.8971C313.041 77.9219 312.356 77.0333 312.356 75.9765C312.356 75.0016 312.616 73.5209 312.17 72.6312C311.688 71.6682 311.639 70.8296 311.639 69.7638C311.639 66.66 311.4 63.5704 311.4 60.4446C311.4 59.235 311.56 57.5518 311.007 56.4468C310.744 55.9217 310.385 56.0202 310.018 55.6125C309.733 55.2957 309.727 54.4136 309.54 53.9929C309.221 53.2769 309.487 51.9098 309.487 51.1255C309.487 49.9082 309.362 48.7151 308.53 47.7802C307.845 47.0097 308.048 45.4622 307.759 44.4879C307.283 42.8822 308.114 39.9997 308.068 38.3383C307.996 35.7452 305.129 36.0957 305.129 33.4441C305.129 32.2106 305.347 29.0696 305.846 27.9471C306.379 26.7501 306.633 25.8584 306.856 24.6345C307.441 21.4175 309.247 18.2108 309.247 14.9242C309.247 14.1529 307.253 13.7386 306.856 14.433C306.545 14.9758 305.794 15.9495 305.288 16.2384C304.387 16.7531 303.573 18.3909 302.923 19.2253C302.419 19.8729 302.03 20.7937 301.847 21.6149C301.628 22.5988 301.973 23.3473 301.475 24.2433C300.966 25.8581 300.4 26.5713 300.04 27.7214C299.594 29.1467 298.332 29.5434 297.782 30.7523C297.193 32.046 297.151 33.6966 296.573 34.9962C296.193 35.8489 294.659 36.2632 294.659 34.9962C294.659 34.3137 294.108 32.9546 293.238 34.1731C293.172 34.5675 291.601 36.3782 291.325 35.6865C291.011 34.9033 292.394 30.7523 290.924 31.2417C290.835 31.2217 289.231 33.6019 288.965 33.9335C288.591 34.4011 288.364 36.1359 288.23 36.6253ZM355.023 97.7563C354.815 96.8097 354.636 96.1558 354.636 95.1822C354.636 94.539 354.765 93.8265 354.765 93.1229C354.765 91.6053 355.151 90.2833 355.151 88.8113C355.151 88.1091 355.198 87.3986 355.016 86.7591C354.847 86.1692 354.54 85.4735 354.278 84.8858C353.729 83.6517 352.955 82.5149 352.582 81.2105C352.226 79.9631 352.656 78.4622 353.219 77.478C353.887 76.3104 354.754 75.4505 355.309 74.2032C355.85 72.9873 355.947 71.6477 356.304 70.3992C356.472 69.8102 357.049 69.3376 357.22 68.7404C357.403 68.0986 357.963 67.8476 358.4 67.4104C358.888 66.9234 359.539 66.6733 360.018 66.1948C360.57 65.6426 361.241 65.7022 361.692 64.9364C361.972 64.4604 362.441 64.0997 362.723 63.6493C363.06 63.1097 363.656 62.614 363.911 62.0405C364.506 60.7018 365.683 60.1736 366.716 59.2447C366.939 59.0442 367.337 58.8939 367.517 58.6942C367.569 58.6291 368.007 58.3277 368.161 58.2437C368.316 58.1597 368.686 57.8053 368.999 57.736C369.296 57.6703 369.786 57.4256 369.965 57.4071C370.275 57.4256 371.717 57.2141 371.961 57.2141C372.636 57.2141 373.44 57.0838 374.022 57.4071C374.496 57.6703 375.174 57.915 375.69 58.1221C375.753 58.1474 376.153 58.3512 376.377 58.5297C376.643 58.7427 377.133 58.8939 377.336 58.9873C377.868 59.3833 378.384 59.8261 378.853 60.0742C379.12 60.2156 379.433 60.5128 379.626 60.7535C379.85 61.0333 380.058 61.1214 380.334 61.397C381.244 62.3057 381.429 63.9568 381.429 65.1938C381.429 65.9455 381.508 66.5153 381.973 67.0958C382.245 67.4358 382.692 68.1076 382.717 68.5401C382.8 69.9487 383.232 71.4149 383.232 72.8518C383.232 74.2537 382.935 75.9105 381.951 77.0024C381.352 77.6677 380.072 79.9389 380.807 80.9177C381.052 81.4071 381.296 82.1413 381.541 82.6307C381.786 83.1201 382.276 83.6095 382.724 84.1779C383.011 84.5413 383.178 84.9631 383.332 85.2719C383.492 85.5909 383.723 85.8929 383.876 86.2372C384.123 86.792 384.486 87.5262 384.52 88.1034C384.58 89.1088 384.97 90.9508 384.198 92.0933C383.876 92.57 383.557 93.1561 383.039 93.7664C382.521 94.3768 382.113 95.0711 381.586 95.5969C381.379 95.8039 381.105 95.909 380.914 96.1475C380.816 96.2697 380.64 96.4423 380.562 96.5791C380.474 96.7318 380.461 96.8417 380.37 96.9555C379.957 97.4717 379.802 98.1659 379.339 98.6287C378.258 99.7086 377.203 100.66 375.826 101.424C375.254 101.742 374.932 101.935 374.439 102.318C374.064 102.61 373.572 102.971 373.214 103.291C373.025 103.46 372.148 103.305 371.897 103.291C371.315 103.256 370.674 103.005 370.031 103.291C369.419 103.562 368.616 103.912 367.968 104.056C367.542 104.15 366.335 104.453 365.972 103.999C365.538 103.457 365.145 102.9 364.812 102.318L364.805 102.306C364.503 101.778 364.049 100.984 363.418 100.984C362.71 100.984 362.243 100.924 361.749 100.431C361.326 100.007 360.824 99.8354 360.404 99.4581C360.197 99.2716 359.852 99.1073 359.603 99.0362C359.459 98.9951 359.01 98.7216 358.758 98.7216C358.03 98.5368 355.336 99.1823 355.023 97.7563ZM361.704 86.3013C361.624 85.5167 361.538 84.8879 361.538 84.1286C361.538 83.8123 361.459 83.4735 361.459 83.1361C361.459 82.8877 361.459 82.386 361.397 82.2053C361.335 82.0247 361.214 81.3797 361.214 81.1624C361.231 80.8497 361.214 80.673 361.38 80.3173C361.704 79.6942 361.89 79.2774 362.333 78.8087C362.746 78.3715 363.084 77.8648 363.507 77.4413C363.91 77.0386 364.109 76.4828 364.461 76.0914C364.844 75.6658 364.956 74.9036 364.956 74.3622C364.956 74.0425 364.873 73.726 364.717 73.4535C364.55 73.1619 364.558 72.9323 364.558 72.5757C364.558 72.0254 365.243 71.5326 365.512 71.0627C365.804 70.5521 366.376 70.2345 366.664 69.7173C366.932 69.2358 367.519 68.5153 368.09 68.4116C368.774 68.2873 369.565 68.2655 369.565 69.1615C369.565 70.2763 368.662 70.9725 368.099 71.8567C367.671 72.5283 367.578 73.2131 367.578 74.0049C367.578 74.8286 367.825 75.1466 368.214 75.8268C368.393 76.1401 368.717 76.1839 369.008 76.3296C369.318 76.4844 369.686 76.7144 369.944 76.9207C370.337 77.2345 371.01 77.4918 371.33 77.8559C371.5 77.9812 371.745 78.2259 371.988 78.5705C372.094 78.7197 372.269 79.0639 372.364 79.3469C372.48 79.6942 372.561 80.7952 372.364 81.1908C372.041 81.8361 371.662 82.4342 371.41 83.114C370.869 84.5725 370.943 85.8971 371.569 87.3047C371.827 87.8843 371.99 88.5037 372.328 89.0691C372.453 89.2249 372.505 89.8433 372.505 90.044V91.1556C372.505 91.7057 372.351 92.3793 371.754 92.5495C371.616 92.5891 371.502 92.6073 371.339 92.6289C371.227 92.6439 370.793 92.7216 370.615 92.7216C370.247 92.7216 370 92.8627 369.763 92.8627C369.365 92.8627 368.277 93.2797 367.975 92.9024C367.79 92.6705 367.656 92.3841 367.481 92.1658C367.267 91.8984 367.213 91.6671 367.061 91.3938C366.732 90.802 366.265 90.2686 365.989 89.647C365.77 89.1545 365.319 88.4064 364.836 88.1384C364.224 87.7983 363.522 87.8878 362.854 87.6972C362.654 87.64 362.285 87.5141 362.192 87.3047C362.123 87.1503 361.704 86.546 361.704 86.3013ZM391.072 54.5376C391.072 53.1033 390.469 51.5881 391.424 50.3946C392.279 49.327 393.25 50.622 393.855 51.2272C394.632 52.0036 394.777 53.7359 394.777 54.8021V56.9176C394.777 57.6481 395.111 58.0412 395.296 58.6904C395.489 59.3653 395.835 59.8255 395.835 60.5317C395.835 60.7365 395.726 61.402 395.875 61.5503C396.091 61.7664 396.512 61.4681 396.541 61.2369C396.573 60.9868 397.298 60.0716 397.463 59.8657C397.81 59.4315 397.875 58.7848 398.09 58.2007C398.195 57.915 398.219 57.6404 398.404 57.5347C398.567 57.4414 399.088 57.0418 399.188 56.9176C399.528 56.493 399.907 56.1075 400.247 55.6835C400.519 55.3434 401.022 54.744 401.384 54.5376C401.635 54.394 401.869 53.755 402.187 53.5778C402.604 53.2655 402.602 53.3427 402.893 53.2154C403.338 53.0208 404.361 53.1685 404.658 53.3427C404.948 53.5133 405.149 53.7666 405.403 53.9696C405.593 54.1214 405.939 54.1364 406.206 54.2242C407.012 54.4891 409.526 54.3934 410.304 54.0479C412.771 52.9524 415.917 56.3533 413.754 58.5141C412.712 59.5557 414.592 60.7837 415.028 61.7658C415.475 62.7697 416.2 63.8769 417.048 64.7236C417.821 65.496 418.244 67.7179 418.244 68.7295C418.244 69.8657 418.62 71.6697 417.44 72.3436C416.869 72.6695 417.009 73.6318 416.616 74.0674C416.376 74.334 415.445 74.9409 415.068 74.988C414.482 75.0612 413.718 75.3164 413.088 75.3406C412.557 75.361 411.42 75.5341 411.049 75.7324C410.601 75.9713 410.107 76.2471 409.774 76.6628C409.408 77.1208 409.392 77.7237 408.804 77.9851C408.253 78.2298 407.774 78.6947 407.206 78.8567C406.655 79.014 406.032 79.2048 405.54 79.6599C405.047 80.115 404.462 80.3205 404.167 80.9821C403.767 81.8834 404.649 82.1597 405.148 82.6079C405.585 83.0013 406.174 83.3466 406.638 83.7637C407.026 84.1129 407.394 84.4995 407.794 84.8998L407.815 84.9201C408.184 85.2893 408.631 85.7352 408.892 86.1926C409.15 86.6436 409.607 87.4046 409.863 87.8577C409.951 88.0143 410.127 89.5773 410.127 89.8851V92.0006C410.127 92.5128 409.951 93.6426 410.264 94.0672C410.674 94.6215 410.931 95.1109 411.323 95.6539C411.665 96.0897 411.742 96.7776 412.205 97.2406C412.592 97.6266 412.898 98.068 413.264 98.4746C414.913 100.306 414.185 104.087 414.185 106.457C414.185 107.612 413.635 109.135 414.225 110.247C414.802 111.337 415.062 112.483 415.558 113.597C415.735 113.994 415.863 114.826 415.95 115.272C416.074 115.911 416.375 116.401 416.479 117.211C416.564 117.869 416.662 118.29 416.469 118.964C416.285 119.609 415.363 119.986 414.803 120.11L414.761 120.119C414.175 120.25 413.937 120.303 413.44 119.807C413.117 119.483 412.52 118.964 412.421 118.533C412.155 117.379 411.186 116.423 411.186 115.095C411.186 113.752 410.817 112.371 410.264 111.129C410.052 110.652 409.45 109.855 409.421 109.366C409.38 108.666 409.421 107.951 409.421 107.25V105.047C409.421 104.32 409.216 103.676 409.069 103.107C408.726 101.473 407.347 101.045 406.598 100.11C406.244 99.6678 405.959 99.3534 405.893 98.788C405.82 98.1745 405.298 97.558 405.01 97.0251C404.638 96.3344 404.318 95.845 403.913 95.4384C403.338 94.8662 403.031 94.5421 402.604 94.0672C401.907 93.294 400.681 92.632 400.155 91.685C399.906 91.2374 399.658 90.5111 399.541 89.8851C399.42 89.2379 399.42 88.9931 399.175 87.8577C399.077 87.403 398.93 86.6923 398.93 86.0566C398.93 85.4702 398.868 84.8842 398.835 84.3317C398.793 83.6211 397.776 83.5396 397.776 84.3317V86.0947C397.776 87.3744 397.61 88.5309 397.61 89.7273C397.61 91.36 397.808 92.7854 397.61 94.3708C397.436 95.7585 396.265 97.1276 396.188 98.4355C396.157 98.977 395.581 99.8446 395.345 100.375C395.052 101.034 395.13 101.775 395.13 102.49C395.13 103.926 395.063 105.125 394.767 106.457C394.554 107.413 392.805 108.764 391.866 108.034C390.967 107.335 390.895 105.631 390.895 104.606C390.895 103.21 391.072 101.879 391.072 100.551C391.072 99.1457 390.51 97.9753 390.905 96.5941C391.277 95.292 391.492 93.8544 391.787 92.5295C391.962 91.744 391.922 91.5338 391.562 90.8547C391.302 90.3642 390.895 89.6437 390.895 89.0917C390.895 88.5054 390.719 87.8219 390.719 87.1525C390.719 86.2302 390.926 85.8172 391.385 85.0369C392.154 83.7312 392.13 82.7773 392.13 81.2465C392.13 80.6346 391.568 80.2242 391.17 79.8264C390.899 79.5561 390.135 79.1615 390.023 78.7686C389.867 78.2225 389.359 77.7851 389.092 77.2799C388.735 76.6073 388.778 75.9129 388.778 75.1643V72.8725C388.778 72.052 389.484 71.4684 389.484 70.5806C389.484 69.9956 390.013 69.5526 390.013 68.9058C390.013 68.0531 389.836 67.305 389.836 66.4376C389.836 65.725 389.113 63.1163 389.935 62.6473C390.98 62.0503 390.542 59.6039 390.542 58.5924C390.542 57.9016 391.035 57.2689 391.072 56.6532C391.113 55.9535 391.072 55.2387 391.072 54.5376ZM399.422 71.8729C398.93 71.3741 398.361 70.983 398.221 70.3539C398.143 70.0025 398.155 69.6568 398.318 69.3484C398.402 69.1915 398.479 69.0484 398.566 68.8967C398.661 68.7303 398.794 68.6142 398.985 68.5259C399.175 68.4376 399.665 68.2815 399.955 68.0837C400.155 67.9482 401.073 66.7131 401.242 66.4174C401.43 66.0805 401.526 65.7271 401.713 65.3904C401.774 65.2823 401.869 65.0116 401.885 64.9839C401.984 64.8099 402.166 64.6382 402.239 64.5133C402.406 64.2306 402.726 63.8727 403.02 63.7098C403.322 63.5421 403.523 63.2876 403.876 63.1868C404.246 63.0812 404.611 62.9729 405.011 62.9729H406.06C406.277 62.9729 406.33 63.0037 406.522 63.0539C406.64 63.0848 407.232 63.3017 407.302 63.4245C407.39 63.578 407.43 63.7317 407.43 63.9142C407.43 64.3149 406.827 64.7166 406.574 64.9839C406.32 65.2525 406.035 65.4436 405.803 65.7327C405.636 65.941 405.375 66.2618 405.375 66.5457C405.375 66.8533 405.357 67.197 405.375 67.5085C405.403 67.9868 405.7 68.3127 405.77 68.5021C405.852 68.723 405.957 68.9324 406.07 69.1344C406.13 69.2425 406.204 69.3152 406.241 69.4245C406.277 69.5337 406.296 69.598 406.338 69.7549C406.403 69.9933 406.403 70.1749 406.403 70.3325C406.403 70.5422 406.4 70.7653 406.296 70.953C406.203 71.1197 406.125 71.2001 406.032 71.3741C405.938 71.5515 405.773 71.7373 405.651 71.8943C405.528 72.0521 405.385 72.2011 405.237 72.3341C405.055 72.4977 404.94 72.6346 404.808 72.8423C404.54 73.1439 403.811 74.3184 403.533 74.6114C403.417 74.7345 403.357 74.8922 403.243 75.006C403.167 75.0819 403.015 75.3064 402.91 75.3364C402.728 75.3883 402.57 75.4244 402.377 75.4244C402.188 75.4244 402.048 75.2238 401.928 75.1035C401.877 75.0632 400.823 73.7418 400.793 73.6891C400.715 73.5531 400.576 73.4596 400.502 73.3277C400.336 73.0281 400.154 72.5973 399.91 72.3529L399.665 72.1082C399.42 71.8635 399.51 71.962 399.422 71.8729ZM417.331 81.6926C416.539 81.0744 416.564 80.8528 416.564 79.9292C416.564 79.3353 416.685 78.7927 417.246 78.4726C418.058 78.0088 419.435 78.1659 420.4 78.1659C421.561 78.1659 421.866 76.7859 423.086 76.7859C423.968 76.7859 425.428 77.0606 426.112 76.5133C427.078 75.7417 427.152 75.2569 427.152 73.9493C427.152 73.2032 426.347 71.1981 426.879 70.5334C427.873 68.8553 428.38 66.417 428.38 64.5193C428.38 63.9714 429.249 60.4476 429.42 59.8853C429.587 59.3116 429.745 58.5595 430.102 58.1135C430.801 57.2409 431.301 53.1938 431.756 52.0994C432.036 50.9915 432.571 50.3597 432.839 49.4246C433.182 48.2236 433.995 47.0761 434.518 45.9661C434.73 45.6078 434.934 45.017 435.132 44.6713C435.404 44.1959 435.573 43.5321 435.976 43.1295C436.42 42.6855 436.689 42.1819 437.434 41.8261C437.914 41.6925 438.451 41.5195 438.969 41.5195C441.189 41.5195 441.212 44.7746 440.162 46.0854C439.609 46.7762 439.188 47.8414 438.738 48.6494C438.212 49.5955 436.821 50.6074 436.689 51.7256C436.634 52.1986 436.613 53.028 437.127 53.4386C437.437 53.6862 437.901 54.211 438.159 54.4174C439.001 55.0903 439.122 55.9979 439.122 57.0061C439.122 58.271 439.137 59.1945 438.508 60.2942C438.267 60.716 437.894 61.1573 437.669 61.606C437.476 62.1327 436.813 66.0364 436.629 66.5893C436.444 67.1423 435.014 71.9105 434.74 72.2626C434.414 72.681 434.259 73.2221 434.024 73.7193L434.018 73.732C433.783 74.2265 433.321 75.2024 433.291 75.7126C433.266 76.1365 433.001 76.6557 433.146 77.1607C433.274 77.6096 434.202 77.8071 434.586 77.6974C435.569 77.417 436.568 77.4918 437.626 77.4918C438.397 77.4918 440.224 77.0233 440.81 77.4918C441.686 78.1919 440.506 79.5494 441.3 80.1836C441.789 80.4283 443.431 79.2048 443.994 79.2048C445.1 79.2048 446.198 79.4495 447.177 79.6942C447.912 79.9389 448.108 80.6729 448.551 80.9259C448.636 80.9744 449.326 81.6724 449.404 81.7692C449.716 82.1595 450.938 81.9992 451.399 81.9992C451.941 81.9992 452.749 82.1218 453.24 82.34C453.836 82.6047 454.123 83.1713 454.553 83.6007C454.751 83.798 455.01 84.8167 454.698 85.0659C454.404 85.301 454.244 85.7907 453.854 86.0199C453.411 86.2802 452.925 86.4312 452.565 86.7908C452.156 87.1997 452.32 87.9575 452.32 88.5037C451.831 89.2379 451.586 88.9931 450.851 88.9931C450.077 88.9931 448.312 88.863 447.912 88.5037C446.961 87.6487 446.104 86.546 444.728 86.546C444.105 86.546 443.749 86.7908 443.014 87.0355C442.462 87.2192 442.058 87.0355 441.544 87.0355C439.754 87.0355 438.412 86.3802 437.266 85.0925C436.673 84.4262 434.197 84.0363 434.197 85.3225C434.197 86.7867 434.419 88.7781 434.197 90.2167C434.028 91.312 434.285 92.8016 433.939 93.8399C433.749 94.407 433.049 94.9417 432.984 95.4925C432.958 95.7134 433.07 96.0553 433.217 96.3344C433.343 96.5719 433.218 96.349 433.299 96.634C433.448 97.156 433.323 97.7496 433.427 98.3206C433.615 99.3525 433.784 100.725 433.299 101.694C432.711 102.87 431.603 103.853 431.603 105.306C431.603 106.249 430.989 106.812 430.989 107.708C430.989 108.748 430.858 109.769 430.835 110.792C430.771 113.736 430.247 116.654 429.923 119.566C429.81 120.584 429.804 121.626 429.573 122.632C429.306 123.802 428.809 124.721 428.414 126.006C428.074 126.678 428.015 126.821 427.829 127.657C427.683 128.314 427.246 128.483 426.605 128.391C425.63 128.252 425.138 127.023 424.97 126.312C424.76 125.426 425.135 124.652 425.135 123.742C425.135 122.017 425.135 120.316 425.374 118.333C425.625 116.89 425.503 115.743 425.89 114.54C426.208 113.553 426.078 112.461 426.078 111.439C426.078 110.682 426.385 109.988 426.385 109.216C426.385 108.822 426.4 108.425 426.385 108.032C426.369 107.603 426.003 107.214 425.933 106.762C425.613 104.684 425.426 101.539 426.85 99.7604C427.193 99.3311 426.145 97.7948 426.087 97.324C425.988 96.5336 425.707 95.8086 425.609 95.024C425.457 93.8059 425.409 93.1287 426.351 92.1532C426.968 91.5137 426.845 90.8516 426.845 90.0066C426.845 89.2137 426.991 88.7635 427.306 88.0559C427.607 87.3793 428.522 86.7308 428.371 85.9007C428.322 85.6311 427.522 84.7114 427.272 84.4866C426.851 84.1083 425.888 85.1919 425.225 84.8785C424.414 84.4942 424.444 83.5378 423.464 83.0484C422.805 82.809 421.478 82.0696 420.77 82.0696C419.681 82.0696 418.811 82.3143 417.331 81.6926ZM416.82 151.431C416.82 150.18 416.82 149.436 417.404 148.441C417.788 147.788 418.181 147.383 418.768 146.745C420.189 145.933 421.453 144.704 422.547 143.489C423.579 142.344 424.727 141.11 426.171 140.698C427.86 140.216 428.594 138.503 430.496 138.397C432.363 138.294 433.217 135.488 434.388 134.403C434.675 134.035 434.992 132.921 435.121 132.471L435.136 132.418C435.293 131.87 436.91 131.356 437.381 131.328C439.063 131.229 439.341 128.626 440.432 127.754C441.043 127.265 441.71 127.229 442.278 126.52C442.913 125.727 443.624 124.817 444.382 124.102C444.93 123.585 445.481 123.121 446.018 122.584C446.354 122.249 447.667 121.54 447.923 121.042C448.17 120.179 448.422 119.867 448.157 118.94C447.859 117.897 446.932 117.24 446.932 116.156C446.932 115.513 447.78 114.425 448.157 113.954C448.922 112.998 449.666 112.096 450.588 111.173C451.84 109.923 454.29 109.539 455.504 108.325C456.21 107.62 455.126 107.388 454.499 106.605C453.824 105.762 454.857 104.885 455.504 104.655C456.344 104.355 457.742 103.699 458.583 103.512C459.332 103.346 460.358 102.863 461.137 102.452C461.749 102.129 463.232 102.257 463.831 101.718C464.467 101.146 464.93 100.439 464.93 99.5574C464.93 98.7768 464.566 97.6868 464.566 96.8239C464.566 95.9164 464.602 95.0452 464.802 94.1454C465.25 92.1283 467.174 89.8215 467.411 87.8056C467.515 86.9276 469.464 82.386 467.26 82.386C465.176 81.7912 465.176 79.301 465.176 77.4732V77.4672C465.176 75.5484 465.082 73.8801 464.568 72.0837C464.357 71.3453 463.554 70.8943 463.341 70.1505C463.137 69.4364 462.607 68.4375 462.607 67.4587C462.607 66.4799 462.429 66.1485 462.429 65.0762C462.429 64.1372 462.265 63.8676 462.265 63.3477C462.265 62.6042 462.055 61.8988 462.055 61.1404V58.1973C462.055 56.8684 461.727 55.7713 461.634 54.4716C461.563 53.4777 461.003 52.5787 461.003 51.5752V48.7372C461.003 48.4312 461.395 45.8113 462.055 46.635C462.604 47.3205 463.107 45.1351 463.107 44.8481C463.107 43.0458 462.897 41.1712 462.897 39.2772C462.897 38.1239 461.997 35.1194 462.943 34.1734C463.82 33.2976 464.073 33.7367 464.837 34.5004C465.379 35.0425 465.832 36.0103 466.368 36.4392C466.938 36.8949 467.559 38.5359 467.724 39.2772C467.859 39.8831 468.167 41.1677 468.414 41.8583C468.729 42.743 468.604 43.7784 469.162 44.4744C469.613 45.0381 469.419 46.5318 469.419 47.2657C469.419 48.0464 469.896 49.0454 470.062 49.7883C470.263 50.6948 470.516 51.7832 470.938 52.6263C471.746 54.2411 471.903 55.8555 473.253 57.2045C473.788 57.7392 474.566 58.0571 474.936 58.7228C475.082 58.985 475.431 59.8283 475.626 59.9842C476.1 60.3632 475.527 61.6357 475.836 62.1915C476.195 62.8364 476.152 64.3943 476.152 65.1229C476.152 66.2949 476.106 67.4786 476.152 68.65C476.185 69.5314 476.713 70.8615 476.315 71.7566C475.761 73.0019 476.523 73.3239 477.203 74.1742C477.676 74.7643 477.423 75.9365 477.729 76.5918C478.036 77.2471 478.296 78.1968 478.84 78.7407C479.405 79.3051 480.525 80.6174 480.57 81.4269C480.615 82.2398 480.504 83.6241 479.833 84.1598C479.368 84.5315 478.887 86.4342 478.887 86.9978C478.887 87.4672 478.722 87.9438 479.307 87.9438C479.897 87.9438 480.209 88.0365 480.583 87.5687C481.571 86.3347 482.18 83.8598 483.914 83.3648C484.404 83.1201 484.349 83.1201 484.893 83.1201C485.187 83.1201 485.628 83.1201 486.04 83.0036C486.452 82.887 486.981 82.4467 487.349 82.3145C487.832 82.1413 488.325 81.7902 488.775 81.5904C489.555 81.2439 490.3 80.773 491.09 80.4225C491.973 80.0303 493.177 79.7371 494.14 79.5232C494.692 79.4006 494.935 79.2048 495.425 78.9601C495.92 78.7127 496.318 78.4983 496.745 78.1659C497.572 77.5234 498.447 76.7218 499.342 76.1713C500.161 75.6678 501.325 75.5405 502.03 74.91C502.943 74.0935 503.675 73.2627 504.438 72.2822C505.497 70.9213 507.64 70.2188 509.23 69.6077C510.294 69.1988 511.13 68.4249 512.129 67.9259C513.093 67.4442 514.117 67.342 515.18 67.342C517.418 67.342 514.414 70.4311 513.976 70.869C512.536 72.3081 511.209 73.9319 509.488 75.0268C507.482 76.3022 505.904 78.7045 503.515 79.3013C501.308 79.8525 500.179 81.6454 498.407 83.062C497.32 83.9308 495.932 84.4856 494.666 85.0474C493.574 85.5325 492.867 86.3639 492.036 87.0095C491.145 87.702 490.667 88.6113 489.932 89.5088C489.168 90.4421 487.933 91.3093 487.349 92.3585C486.801 93.3439 485.784 93.9856 485.152 94.8812C484.486 95.823 482.068 96.069 481.108 96.6798C479.665 97.5969 477.096 97.8908 476.198 99.5061C475.595 100.591 474.406 101.008 473.837 102.146C473.362 103.094 472.659 103.995 471.85 104.657C470.918 105.418 470.064 106.366 469.01 106.981C468.049 107.54 467.015 108.57 465.842 109.176C465.301 109.549 464.5 110.208 464.054 110.554C463.607 110.902 463.091 111.084 462.686 111.489C461.733 112.441 461.095 113.006 460.477 114.117C459.478 115.914 458.805 118.268 457.38 119.851C455.52 121.915 453.498 123.774 452.073 126.216C451.398 127.373 451.263 128.881 450.588 130.094C449.899 131.334 449.117 131.657 448.169 132.605C445.914 134.857 443.427 136.829 441.132 139.121C440.1 140.153 438.955 141.246 437.754 142.076C436.515 142.934 435.177 142.829 433.707 143.074C432.483 143.278 431.557 143.104 430.523 143.563C429.356 144.082 428.074 145.032 426.931 145.755C425.87 146.255 425.118 147.467 424.067 148.068C422.931 148.947 422.133 149.894 421.028 150.544C420.237 151.008 419.608 152.032 418.807 152.26C417.608 152.603 417.298 152.862 416.82 151.431Z" stroke="#FF8000" stroke-width="2" stroke-linecap="round"/>
</svg>
